<!--ACCMan-->
<svg width="24" height="24" viewBox="0 0 24 24" fill="none" xmlns="http://www.w3.org/2000/svg">
<path d="M11.8315 13.8502C7.92501 14.2033 4.94884 17.5042 5.0007 21.4262V21.6251C5.0007 22.3844 5.61629 23 6.37565 23C7.13502 23 7.75061 22.3844 7.75061 21.6251V21.3712C7.70928 18.9631 9.48641 16.9095 11.8755 16.6047C14.3974 16.3546 16.6445 18.1963 16.8946 20.7182C16.9094 20.8673 16.9168 21.017 16.917 21.1668V21.6251C16.917 22.3844 17.5326 23 18.2919 23C19.0513 23 19.6669 22.3844 19.6669 21.6251V21.1667C19.6624 17.1122 16.3719 13.829 12.3174 13.8335C12.1553 13.8337 11.9933 13.8392 11.8315 13.8502Z" fill="#2B1B12"/>
<path d="M12.3339 11.9996C15.3713 11.9996 17.8337 9.53727 17.8337 6.49982C17.8337 3.46237 15.3713 1 12.3339 1C9.29641 1 6.83403 3.46237 6.83403 6.49982C6.83704 9.53603 9.29765 11.9966 12.3339 11.9996ZM12.3339 3.74991C13.8526 3.74991 15.0838 4.9811 15.0838 6.49982C15.0838 8.01855 13.8526 9.24973 12.3339 9.24973C10.8151 9.24973 9.58394 8.01855 9.58394 6.49982C9.58394 4.9811 10.8151 3.74991 12.3339 3.74991Z" fill="#2B1B12"/>
</svg>