<!--Dwello Logo-->
<svg width="93" height="29" viewBox="0 0 93 29" fill="none" xmlns="http://www.w3.org/2000/svg">
<g clip-path="url(#clip0_1_4)">
<path d="M6.20173 27.5217V10.7217H14.1457C16.0017 10.7217 17.6337 11.0657 19.0417 11.7537C20.4497 12.4417 21.5457 13.4097 22.3297 14.6577C23.1297 15.9057 23.5297 17.3937 23.5297 19.1217C23.5297 20.8337 23.1297 22.3217 22.3297 23.5857C21.5457 24.8337 20.4497 25.8017 19.0417 26.4897C17.6337 27.1777 16.0017 27.5217 14.1457 27.5217H6.20173ZM10.9537 23.7297H13.9537C14.9137 23.7297 15.7457 23.5537 16.4497 23.2017C17.1697 22.8337 17.7297 22.3057 18.1297 21.6177C18.5297 20.9137 18.7297 20.0817 18.7297 19.1217C18.7297 18.1457 18.5297 17.3137 18.1297 16.6257C17.7297 15.9377 17.1697 15.4177 16.4497 15.0657C15.7457 14.6977 14.9137 14.5137 13.9537 14.5137H10.9537V23.7297ZM28.9099 27.5217L24.2779 14.5137H28.5979L32.2699 25.3857H30.2059L34.0219 14.5137H37.9099L41.5819 25.3857H39.5659L43.3579 14.5137H47.3659L42.7339 27.5217H38.3179L35.1979 18.5217H36.5419L33.3259 27.5217H28.9099ZM55.2236 27.7377C53.6876 27.7377 52.3436 27.4497 51.1916 26.8737C50.0556 26.2817 49.1676 25.4817 48.5276 24.4737C47.9036 23.4497 47.5916 22.2897 47.5916 20.9937C47.5916 19.6977 47.8956 18.5457 48.5036 17.5377C49.1276 16.5137 49.9836 15.7217 51.0716 15.1617C52.1596 14.5857 53.3836 14.2977 54.7436 14.2977C56.0236 14.2977 57.1916 14.5617 58.2476 15.0897C59.3036 15.6017 60.1436 16.3617 60.7676 17.3697C61.3916 18.3777 61.7036 19.6017 61.7036 21.0417C61.7036 21.2017 61.6956 21.3857 61.6796 21.5937C61.6636 21.8017 61.6476 21.9937 61.6316 22.1697H51.3356V19.7697H59.2076L57.4796 20.4417C57.4956 19.8497 57.3836 19.3377 57.1436 18.9057C56.9196 18.4737 56.5996 18.1377 56.1836 17.8977C55.7836 17.6577 55.3116 17.5377 54.7676 17.5377C54.2236 17.5377 53.7436 17.6577 53.3276 17.8977C52.9276 18.1377 52.6156 18.4817 52.3916 18.9297C52.1676 19.3617 52.0556 19.8737 52.0556 20.4657V21.1617C52.0556 21.8017 52.1836 22.3537 52.4396 22.8177C52.7116 23.2817 53.0956 23.6417 53.5916 23.8977C54.0876 24.1377 54.6796 24.2577 55.3676 24.2577C56.0076 24.2577 56.5516 24.1697 56.9996 23.9937C57.4636 23.8017 57.9196 23.5137 58.3676 23.1297L60.7676 25.6257C60.1436 26.3137 59.3756 26.8417 58.4636 27.2097C57.5516 27.5617 56.4716 27.7377 55.2236 27.7377ZM63.806 27.5217V9.71373H68.366V27.5217H63.806ZM71.3295 27.5217V9.71373H75.8895V27.5217H71.3295ZM85.3809 27.7377C83.9569 27.7377 82.6929 27.4497 81.5889 26.8737C80.4849 26.2977 79.6129 25.5057 78.9729 24.4977C78.3489 23.4737 78.0369 22.3057 78.0369 20.9937C78.0369 19.6817 78.3489 18.5217 78.9729 17.5137C79.6129 16.5057 80.4849 15.7217 81.5889 15.1617C82.6929 14.5857 83.9569 14.2977 85.3809 14.2977C86.8049 14.2977 88.0689 14.5857 89.1729 15.1617C90.2929 15.7217 91.1649 16.5057 91.7889 17.5137C92.4129 18.5217 92.7249 19.6817 92.7249 20.9937C92.7249 22.3057 92.4129 23.4737 91.7889 24.4977C91.1649 25.5057 90.2929 26.2977 89.1729 26.8737C88.0689 27.4497 86.8049 27.7377 85.3809 27.7377ZM85.3809 24.1137C85.9089 24.1137 86.3729 23.9937 86.7729 23.7537C87.1889 23.5137 87.5169 23.1617 87.7569 22.6977C87.9969 22.2177 88.1169 21.6497 88.1169 20.9937C88.1169 20.3377 87.9969 19.7857 87.7569 19.3377C87.5169 18.8737 87.1889 18.5217 86.7729 18.2817C86.3729 18.0417 85.9089 17.9217 85.3809 17.9217C84.8689 17.9217 84.4049 18.0417 83.9889 18.2817C83.5889 18.5217 83.2609 18.8737 83.0049 19.3377C82.7649 19.7857 82.6449 20.3377 82.6449 20.9937C82.6449 21.6497 82.7649 22.2177 83.0049 22.6977C83.2609 23.1617 83.5889 23.5137 83.9889 23.7537C84.4049 23.9937 84.8689 24.1137 85.3809 24.1137Z" fill="#2A1B12"/>
<line x1="1.89469" y1="28.1235" x2="1.89469" y2="7.91301" stroke="#2A1B12" stroke-width="3.78947"/>
<line y1="6.01835" x2="24" y2="6.01835" stroke="#2A1B12" stroke-width="3.78947"/>
<line y1="1.13031" x2="14.6957" y2="1.13031" stroke="#2A1B12" stroke-width="2.26087"/>
</g>
<defs>
<clipPath id="clip0_1_4">
<rect width="93" height="29" fill="white"/>
</clipPath>
</defs>
</svg>