<svg width="22" height="22" viewBox="0 0 22 22" fill="none" xmlns="http://www.w3.org/2000/svg">
<path fill-rule="evenodd" clip-rule="evenodd" d="M11.3 2C7.40667 2 4 6 4 9C4 12.1414 4.95261 13.6517 6.13237 14.9283C6.50757 15.3343 6.88089 15.7681 7.26057 16.2093C7.77721 16.8096 8.30564 17.4236 8.86667 18C8.91173 18.0463 8.95783 18.0942 9.00502 18.1433C9.57938 18.7407 10.3154 19.5062 11.3 19.5C12.2846 19.5062 13.0206 18.7407 13.595 18.1433C13.6422 18.0942 13.6883 18.0463 13.7333 18C14.2944 17.4236 14.8228 16.8096 15.3394 16.2093C15.7191 15.7681 16.0924 15.3343 16.4676 14.9283C17.6474 13.6517 18.6 12.1414 18.6 9C18.6 6 15.1933 2 11.3 2ZM11.2 11.4C12.415 11.4 13.4 10.415 13.4 9.2C13.4 7.98497 12.415 7 11.2 7C9.98497 7 9 7.98497 9 9.2C9 10.415 9.98497 11.4 11.2 11.4Z" fill="#695346"/>
</svg>