<!-- mag glas -->
<svg width="24" height="24" viewBox="0 0 24 24" fill="none" xmlns="http://www.w3.org/2000/svg">
<path d="M22.5601 20.4452L19.9149 17.7981C23.3906 13.1533 22.4429 6.57034 17.7981 3.09462C13.1534 -0.381104 6.57037 0.566612 3.09465 5.21139C-0.381073 9.85616 0.566643 16.4392 5.21142 19.9149C8.94248 22.7069 14.067 22.7069 17.7981 19.9149L20.4452 22.562C21.0292 23.146 21.9761 23.146 22.56 22.562C23.144 21.978 23.144 21.0312 22.56 20.4472L22.5601 20.4452ZM11.5435 19.0179C7.41545 19.0179 4.06904 15.6715 4.06904 11.5435C4.06904 7.41542 7.41545 4.06901 11.5435 4.06901C15.6716 4.06901 19.018 7.41542 19.018 11.5435C19.0136 15.6697 15.6697 19.0136 11.5435 19.0179Z" fill="#2B1B12"/>
</svg>