<svg width="22" height="22" viewBox="0 0 22 22" fill="none" xmlns="http://www.w3.org/2000/svg">
<path fill-rule="evenodd" clip-rule="evenodd" d="M12.7 19.4C12.5636 19.4 12.5544 19.2031 12.6872 19.172C16.5345 18.2731 19.3999 14.8212 19.3999 10.7C19.3999 6.5788 16.5345 3.12694 12.6872 2.22801C12.5544 2.19698 12.5636 2 12.7 2C17.5049 2 21.3999 5.89511 21.3999 10.7C21.3999 15.5049 17.5049 19.4 12.7 19.4Z" fill="#695346"/>
<path fill-rule="evenodd" clip-rule="evenodd" d="M8.7 19.4C13.5049 19.4 17.4 15.5049 17.4 10.7C17.4 5.89512 13.5049 2 8.7 2C3.89512 2 0 5.89512 0 10.7C0 15.5049 3.89512 19.4 8.7 19.4ZM9.68615 4.47692C9.68615 4.21353 9.47263 4 9.20923 4C8.94583 4 8.73231 4.21353 8.73231 4.47692V5.48825C8.34428 5.53257 7.99351 5.64059 7.68 5.81231C7.25744 6.03914 6.92718 6.36318 6.68923 6.78443C6.45538 7.20105 6.33846 7.69406 6.33846 8.26344C6.33846 8.85597 6.44718 9.34666 6.66462 9.73551C6.88615 10.1244 7.1959 10.4507 7.59385 10.7146C7.9918 10.9738 8.45538 11.2122 8.98462 11.4298C9.32513 11.5686 9.5959 11.7145 9.79692 11.8672C10.0021 12.02 10.1477 12.1936 10.2338 12.388C10.3241 12.5824 10.3692 12.8116 10.3692 13.0754C10.3692 13.3347 10.32 13.5661 10.2215 13.7698C10.1272 13.9689 9.98359 14.1239 9.79077 14.235C9.60205 14.3461 9.3641 14.4017 9.07692 14.4017C8.90051 14.4017 8.72615 14.3739 8.55385 14.3184C8.38154 14.2628 8.22564 14.1679 8.08615 14.0337C7.94667 13.8948 7.8359 13.7096 7.75385 13.4782C7.72387 13.3936 7.69937 13.301 7.68034 13.2004C7.61878 12.8748 7.36214 12.6033 7.03077 12.6033H6.6C6.26863 12.6033 5.99477 12.8728 6.03153 13.2021C6.07141 13.5594 6.1491 13.8759 6.26462 14.1517C6.44103 14.5683 6.67692 14.9039 6.97231 15.1585C7.27179 15.4085 7.6041 15.5891 7.96923 15.7002C8.18523 15.7659 8.40267 15.8122 8.62154 15.839V16.7262C8.62154 16.9879 8.83369 17.2 9.09538 17.2C9.35708 17.2 9.56923 16.9879 9.56923 16.7262V15.8389C9.95186 15.7939 10.2985 15.6944 10.6092 15.5405C11.0482 15.3229 11.3887 15.0058 11.6308 14.5892C11.8769 14.1725 12 13.6633 12 13.0615C12 12.4736 11.8913 11.9876 11.6738 11.6034C11.4564 11.2191 11.1508 10.8951 10.7569 10.6312C10.3631 10.3628 9.89949 10.1174 9.36615 9.89521C9.00923 9.73782 8.7282 9.58275 8.52308 9.42998C8.32205 9.27722 8.17846 9.10826 8.09231 8.92309C8.01026 8.7333 7.96923 8.51341 7.96923 8.26344C7.96923 8.00421 8.00821 7.77507 8.08615 7.57601C8.16821 7.37696 8.29538 7.21957 8.46769 7.10384C8.6441 6.98811 8.86769 6.93025 9.13846 6.93025C9.32718 6.93025 9.49538 6.96959 9.64308 7.04829C9.79487 7.12699 9.9241 7.24503 10.0308 7.40242C10.1374 7.55518 10.2195 7.74266 10.2769 7.96486C10.2908 8.01852 10.303 8.07408 10.3135 8.13152C10.3732 8.45747 10.6317 8.72867 10.9631 8.72867H11.3877C11.7191 8.72867 11.9928 8.45907 11.9547 8.12989C11.9221 7.84827 11.8654 7.58726 11.7846 7.34687C11.6533 6.93951 11.4626 6.59695 11.2123 6.3192C10.9662 6.04145 10.6687 5.83083 10.32 5.68732C10.1234 5.60282 9.91212 5.54241 9.68615 5.50612V4.47692Z" fill="#695346"/>
</svg>